<svg xmlns="http://www.w3.org/2000/svg" xmlns:xlink="http://www.w3.org/1999/xlink" viewBox="0 0 24 30" version="1.1" x="0px" y="0px"><g stroke="none" stroke-width="1" fill="none" fill-rule="evenodd"><rect fill-rule="nonzero" x="0" y="0" width="24" height="24"/><path d="M6,11 C6,14.8659932 9.13400675,18 13,18 C15.3478907,18 17.4861543,16.8338501 18.7714431,14.9632501 C18.516254,14.9876849 18.2588988,15 18,15 C13.581722,15 10,11.418278 10,7 C10,6.13917646 10.1362415,5.29727565 10.3989618,4.49854882 C7.78993204,5.54131177 6,8.09036426 6,11 Z M11.7108921,3.9225371 C11.245328,4.87204646 11,5.9180208 11,7 C11,10.8659932 14.1340068,14 18,14 C18.5520677,14 19.0954097,13.9361873 19.6226124,13.811094 L20.6533739,13.5665177 L20.1869843,14.5177104 C18.8530231,17.2382994 16.0845454,19 13,19 C8.581722,19 5,15.418278 5,11 C5,7.27338007 7.5686773,4.06486178 11.1465202,3.21592075 L12.1772816,2.97134442 L11.7108921,3.9225371 Z" fill="#000000" fill-rule="nonzero"/></g></svg>
