<svg xmlns="http://www.w3.org/2000/svg" xmlns:xlink="http://www.w3.org/1999/xlink" viewBox="0 0 24 30" version="1.1" x="0px" y="0px"><g stroke="none" stroke-width="1" fill="none" fill-rule="evenodd"><rect fill-rule="nonzero" x="0" y="0" width="24" height="24"/><path d="M11.5,16 C9.01471863,16 7,13.9852814 7,11.5 C7,9.01471863 9.01471863,7 11.5,7 C13.9852814,7 16,9.01471863 16,11.5 C16,13.9852814 13.9852814,16 11.5,16 Z M11.5,15 C13.4329966,15 15,13.4329966 15,11.5 C15,9.56700338 13.4329966,8 11.5,8 C9.56700338,8 8,9.56700338 8,11.5 C8,13.4329966 9.56700338,15 11.5,15 Z M12,5 L11,5 L11,2 L12,2 L12,5 Z M16.4497475,7.25735931 L15.7426407,6.55025253 L17.863961,4.42893219 L18.5710678,5.13603897 L16.4497475,7.25735931 Z M18,12 L18,11 L21,11 L21,12 L18,12 Z M15.7426407,16.4497475 L16.4497475,15.7426407 L18.5710678,17.863961 L17.863961,18.5710678 L15.7426407,16.4497475 Z M11,18 L12,18 L12,21 L11,21 L11,18 Z M6.55025253,15.7426407 L7.25735931,16.4497475 L5.13603897,18.5710678 L4.42893219,17.863961 L6.55025253,15.7426407 Z M5,11 L5,12 L2,12 L2,11 L5,11 Z M7.25735931,6.55025253 L6.55025253,7.25735931 L4.42893219,5.13603897 L5.13603897,4.42893219 L7.25735931,6.55025253 Z" fill="#000000" fill-rule="nonzero"/></g></svg>
